<?xml version="1.0" encoding="UTF-8" standalone="no"?><!DOCTYPE svg PUBLIC "-//W3C//DTD SVG 1.1//EN" "http://www.w3.org/Graphics/SVG/1.1/DTD/svg11.dtd"><!-- Generated by graphviz version 2.40.1 (20161225.0304)
 --><!-- Title: ZigbeeNetwork Pages: 1 --><svg xmlns="http://www.w3.org/2000/svg" xmlns:xlink="http://www.w3.org/1999/xlink" width="1304pt" height="821pt" viewBox="0.00 0.00 1304.00 821.00">
<g id="graph0" class="graph" transform="scale(1 1) rotate(0) translate(4 817)">
<title>ZigbeeNetwork</title>
<polygon fill="#ffffff" stroke="transparent" points="-4,4 -4,-817 1300,-817 1300,4 -4,4"/>
<!-- 0x00124b0018e2f44a -->
<g id="node1" class="node">
<title>0x00124b0018e2f44a</title>
<polygon fill="#e04e5d" stroke="#000000" stroke-width="2" points="600.4127,-387.8016 600.4127,-423.8016 684.0663,-423.8016 684.0663,-387.8016 600.4127,-387.8016"/>
<text text-anchor="middle" x="642.2395" y="-401.7016" font-family="Times,serif" font-size="14.00" fill="#ffffff">Coordinator</text>
</g>
<!-- 0xec1bbdfffeaccaf8 -->
<g id="node2" class="node">
<title>0xec1bbdfffeaccaf8</title>
<path fill="#4ea3e0" stroke="#000000" d="M799.1284,-543.4058C799.1284,-543.4058 1284.137,-543.4058 1284.137,-543.4058 1290.137,-543.4058 1296.137,-549.4058 1296.137,-555.4058 1296.137,-555.4058 1296.137,-581.0058 1296.137,-581.0058 1296.137,-587.0058 1290.137,-593.0058 1284.137,-593.0058 1284.137,-593.0058 799.1284,-593.0058 799.1284,-593.0058 793.1284,-593.0058 787.1284,-587.0058 787.1284,-581.0058 787.1284,-581.0058 787.1284,-555.4058 787.1284,-555.4058 787.1284,-549.4058 793.1284,-543.4058 799.1284,-543.4058"/>
<text text-anchor="middle" x="1041.6327" y="-576.4058" font-family="Times,serif" font-size="14.00" fill="#ffffff">tradfri_light</text>
<polyline fill="none" stroke="#000000" points="787.1284,-568.2058 1296.137,-568.2058 "/>
<text text-anchor="middle" x="1041.6327" y="-551.6058" font-family="Times,serif" font-size="14.00" fill="#ffffff">IKEA TRADFRI LED bulb E26/E27 806 lumen, dimmable, warm white (LED1836G9)</text>
</g>
<!-- 0x00124b0018e2f44a&#45;&gt;0xec1bbdfffeaccaf8 -->
<g id="edge1" class="edge">
<title>0x00124b0018e2f44a-&gt;0xec1bbdfffeaccaf8</title>
<path fill="none" stroke="#994444" stroke-width=".5" d="M684.1805,-403.32C714.6986,-403.743 755.2904,-409.2111 782.5789,-431.8154 821.1232,-463.7433 784.1747,-505.6433 823.3549,-536.7876 823.5329,-536.929 823.7112,-537.07 823.8898,-537.2105"/>
<polygon fill="#994444" stroke="#994444" stroke-width=".5" points="822.0051,-540.1673 832.1539,-543.2093 826.1173,-534.5024 822.0051,-540.1673"/>
<text text-anchor="middle" x="791.3275" y="-472.4862" font-family="Times,serif" font-size="14.00" fill="#000000">170</text>
</g>
<!-- 0xec1bbdfffeaccaf8&#45;&gt;0x00124b0018e2f44a -->
<g id="edge5" class="edge">
<title>0xec1bbdfffeaccaf8-&gt;0x00124b0018e2f44a</title>
<path fill="none" stroke="#994444" stroke-width=".5" d="M832.1539,-543.2093C829.1386,-541.1894 826.2021,-539.0508 823.3549,-536.7876 784.1747,-505.6433 821.1232,-463.7433 782.5789,-431.8154 758.2751,-411.6834 723.4189,-405.1441 694.5252,-403.6557"/>
<polygon fill="#994444" stroke="#994444" stroke-width=".5" points="694.2888,-400.1462 684.1805,-403.32 694.0617,-407.1426 694.2888,-400.1462"/>
<text text-anchor="middle" x="794.8275" y="-455.6862" font-family="Times,serif" font-size="14.00" fill="#000000">92</text>
</g>
<!-- 0xec1bbdfffeb4af7e -->
<g id="node3" class="node">
<title>0xec1bbdfffeb4af7e</title>
<path fill="#fff8ce" stroke="#000000" stroke-dasharray="5,2" d="M402.5337,-122.0586C402.5337,-122.0586 634.0387,-122.0586 634.0387,-122.0586 640.0387,-122.0586 646.0387,-128.0586 646.0387,-134.0586 646.0387,-134.0586 646.0387,-159.6586 646.0387,-159.6586 646.0387,-165.6586 640.0387,-171.6586 634.0387,-171.6586 634.0387,-171.6586 402.5337,-171.6586 402.5337,-171.6586 396.5337,-171.6586 390.5337,-165.6586 390.5337,-159.6586 390.5337,-159.6586 390.5337,-134.0586 390.5337,-134.0586 390.5337,-128.0586 396.5337,-122.0586 402.5337,-122.0586"/>
<text text-anchor="middle" x="518.2862" y="-155.0586" font-family="Times,serif" font-size="14.00" fill="#000000">tradfri_controller</text>
<polyline fill="none" stroke="#000000" stroke-dasharray="5,2" points="390.5337,-146.8586 646.0387,-146.8586 "/>
<text text-anchor="middle" x="518.2862" y="-130.2586" font-family="Times,serif" font-size="14.00" fill="#000000">IKEA TRADFRI ON/OFF switch (E1743)</text>
</g>
<!-- 0xec1bbdfffeb4af7e&#45;&gt;0x00124b0018e2f44a -->
<g id="edge2" class="edge">
<title>0xec1bbdfffeb4af7e-&gt;0x00124b0018e2f44a</title>
<path fill="none" stroke="#994444" d="M527.5045,-171.9251C528.5518,-175.0479 529.5646,-178.2099 530.4641,-181.2461 556.0093,-267.4659 519.8069,-309.186 577.7179,-377.9807 581.5427,-382.5244 586.2465,-386.3461 591.3565,-389.556"/>
<polygon fill="#994444" stroke="#994444" points="589.7999,-392.6936 600.2564,-394.4001 593.1464,-386.5453 589.7999,-392.6936"/>
<text text-anchor="middle" x="531.4579" y="-290.4351" font-family="Times,serif" font-size="14.00" fill="#000000">170</text>
</g>
<!-- 0x00158d000429b1ac -->
<g id="node4" class="node">
<title>0x00158d000429b1ac</title>
<path fill="#fff8ce" stroke="#000000" stroke-dasharray="5,2" d="M205.4194,-626.7655C205.4194,-626.7655 549.2912,-626.7655 549.2912,-626.7655 555.2912,-626.7655 561.2912,-632.7655 561.2912,-638.7655 561.2912,-638.7655 561.2912,-664.3655 561.2912,-664.3655 561.2912,-670.3655 555.2912,-676.3655 549.2912,-676.3655 549.2912,-676.3655 205.4194,-676.3655 205.4194,-676.3655 199.4194,-676.3655 193.4194,-670.3655 193.4194,-664.3655 193.4194,-664.3655 193.4194,-638.7655 193.4194,-638.7655 193.4194,-632.7655 199.4194,-626.7655 205.4194,-626.7655"/>
<text text-anchor="middle" x="377.3553" y="-659.7655" font-family="Times,serif" font-size="14.00" fill="#000000">aqara_door</text>
<polyline fill="none" stroke="#000000" stroke-dasharray="5,2" points="193.4194,-651.5655 561.2912,-651.5655 "/>
<text text-anchor="middle" x="377.3553" y="-634.9655" font-family="Times,serif" font-size="14.00" fill="#000000">Xiaomi MiJia door &amp; window contact sensor (MCCGQ01LM)</text>
</g>
<!-- 0x00158d000429b1ac&#45;&gt;0x00124b0018e2f44a -->
<g id="edge3" class="edge">
<title>0x00158d000429b1ac-&gt;0x00124b0018e2f44a</title>
<path fill="none" stroke="#994444" d="M408.3056,-626.5728C427.8499,-608.6912 451.374,-582.7621 462.1375,-553.9564 470.8492,-530.642 472.7083,-520.489 462.1375,-497.9564 459.1429,-491.5731 452.9322,-494.1987 449.9375,-487.8154 439.3668,-465.2828 433.5605,-450.557 449.9375,-431.8154 483.7688,-393.0994 545.6049,-391.2989 590.0329,-396.1593"/>
<polygon fill="#994444" stroke="#994444" points="589.7226,-399.6475 600.0767,-397.4021 590.5822,-392.7005 589.7226,-399.6475"/>
<text text-anchor="middle" x="475.794" y="-521.6421" font-family="Times,serif" font-size="14.00" fill="#000000">90</text>
</g>
<!-- 0x00158d0004110f6f -->
<g id="node5" class="node">
<title>0x00158d0004110f6f</title>
<path fill="#fff8ce" stroke="#000000" stroke-dasharray="5,2" d="M11.7087,-501.1564C11.7087,-501.1564 446.9375,-501.1564 446.9375,-501.1564 452.9375,-501.1564 458.9375,-507.1564 458.9375,-513.1564 458.9375,-513.1564 458.9375,-538.7564 458.9375,-538.7564 458.9375,-544.7564 452.9375,-550.7564 446.9375,-550.7564 446.9375,-550.7564 11.7087,-550.7564 11.7087,-550.7564 5.7087,-550.7564 -.2913,-544.7564 -.2913,-538.7564 -.2913,-538.7564 -.2913,-513.1564 -.2913,-513.1564 -.2913,-507.1564 5.7087,-501.1564 11.7087,-501.1564"/>
<text text-anchor="middle" x="229.3231" y="-534.1564" font-family="Times,serif" font-size="14.00" fill="#000000">aqara_motion</text>
<polyline fill="none" stroke="#000000" stroke-dasharray="5,2" points="-.2913,-525.9564 458.9375,-525.9564 "/>
<text text-anchor="middle" x="229.3231" y="-509.3564" font-family="Times,serif" font-size="14.00" fill="#000000">Xiaomi Aqara human body movement and illuminance sensor (RTCGQ11LM)</text>
</g>
<!-- 0x00158d0004110f6f&#45;&gt;0x00124b0018e2f44a -->
<g id="edge4" class="edge">
<title>0x00158d0004110f6f-&gt;0x00124b0018e2f44a</title>
<path fill="none" stroke="#994444" d="M277.0387,-501.1444C320.8354,-479.4592 388.1125,-448.8523 449.9375,-431.8154 496.4488,-418.9984 551.0984,-412.3806 590.2274,-409.0372"/>
<polygon fill="#994444" stroke="#994444" points="590.6446,-412.515 600.3286,-408.2172 590.0782,-405.5379 590.6446,-412.515"/>
<text text-anchor="middle" x="442.9461" y="-436.013" font-family="Times,serif" font-size="14.00" fill="#000000">42</text>
</g>
<!-- 0x00158d00045cfb70 -->
<g id="node6" class="node">
<title>0x00158d00045cfb70</title>
<path fill="#fff8ce" stroke="#000000" stroke-dasharray="5,2" d="M226.9314,-762.8111C226.9314,-762.8111 648.1252,-762.8111 648.1252,-762.8111 654.1252,-762.8111 660.1252,-768.8111 660.1252,-774.8111 660.1252,-774.8111 660.1252,-800.4111 660.1252,-800.4111 660.1252,-806.4111 654.1252,-812.4111 648.1252,-812.4111 648.1252,-812.4111 226.9314,-812.4111 226.9314,-812.4111 220.9314,-812.4111 214.9314,-806.4111 214.9314,-800.4111 214.9314,-800.4111 214.9314,-774.8111 214.9314,-774.8111 214.9314,-768.8111 220.9314,-762.8111 226.9314,-762.8111"/>
<text text-anchor="middle" x="437.5283" y="-795.8111" font-family="Times,serif" font-size="14.00" fill="#000000">aqara_temp</text>
<polyline fill="none" stroke="#000000" stroke-dasharray="5,2" points="214.9314,-787.6111 660.1252,-787.6111 "/>
<text text-anchor="middle" x="437.5283" y="-771.0111" font-family="Times,serif" font-size="14.00" fill="#000000">Xiaomi Aqara temperature, humidity and pressure sensor (WSDCGQ11LM)</text>
</g>
<!-- 0x00158d00045cfb70&#45;&gt;0x00124b0018e2f44a -->
<g id="edge6" class="edge">
<title>0x00158d00045cfb70-&gt;0x00124b0018e2f44a</title>
<path fill="none" stroke="#994444" d="M483.5434,-762.6101C512.6666,-743.9732 547.8583,-715.5607 564.4912,-679.5655 574.9314,-656.9722 572.8352,-647.0141 564.4912,-623.5655 540.3489,-555.7193 512.8097,-549.1257 462.1375,-497.9564 457.1762,-492.9464 452.9322,-494.1987 449.9375,-487.8154 439.3668,-465.2828 433.5605,-450.557 449.9375,-431.8154 483.7688,-393.0994 545.6049,-391.2989 590.0329,-396.1593"/>
<polygon fill="#994444" stroke="#994444" points="589.7226,-399.6475 600.0767,-397.4021 590.5822,-392.7005 589.7226,-399.6475"/>
<text text-anchor="middle" x="536.1991" y="-583.1923" font-family="Times,serif" font-size="14.00" fill="#000000">56</text>
</g>
<!-- 0x00158d000465f8c7 -->
<g id="node7" class="node">
<title>0x00158d000465f8c7</title>
<path fill="#fff8ce" stroke="#000000" stroke-dasharray="5,2" d="M838.5549,-483.9876C838.5549,-483.9876 1259.7487,-483.9876 1259.7487,-483.9876 1265.7487,-483.9876 1271.7487,-489.9876 1271.7487,-495.9876 1271.7487,-495.9876 1271.7487,-521.5876 1271.7487,-521.5876 1271.7487,-527.5876 1265.7487,-533.5876 1259.7487,-533.5876 1259.7487,-533.5876 838.5549,-533.5876 838.5549,-533.5876 832.5549,-533.5876 826.5549,-527.5876 826.5549,-521.5876 826.5549,-521.5876 826.5549,-495.9876 826.5549,-495.9876 826.5549,-489.9876 832.5549,-483.9876 838.5549,-483.9876"/>
<text text-anchor="middle" x="1049.1518" y="-516.9876" font-family="Times,serif" font-size="14.00" fill="#000000">aqara_temp2</text>
<polyline fill="none" stroke="#000000" stroke-dasharray="5,2" points="826.5549,-508.7876 1271.7487,-508.7876 "/>
<text text-anchor="middle" x="1049.1518" y="-492.1876" font-family="Times,serif" font-size="14.00" fill="#000000">Xiaomi Aqara temperature, humidity and pressure sensor (WSDCGQ11LM)</text>
</g>
<!-- 0x00158d000465f8c7&#45;&gt;0x00124b0018e2f44a -->
<g id="edge7" class="edge">
<title>0x00158d000465f8c7-&gt;0x00124b0018e2f44a</title>
<path fill="none" stroke="#994444" d="M970.661,-483.9312C917.8443,-467.7483 846.4502,-446.9182 782.5789,-431.8154 753.4983,-424.9391 720.6734,-418.7686 694.0851,-414.1648"/>
<polygon fill="#994444" stroke="#994444" points="694.6678,-410.7137 684.221,-412.4789 693.4884,-417.6137 694.6678,-410.7137"/>
<text text-anchor="middle" x="821.7786" y="-447.5457" font-family="Times,serif" font-size="14.00" fill="#000000">70</text>
</g>
<!-- 0x00158d000465f8c7&#45;&gt;0xec1bbdfffeaccaf8 -->
<g id="edge8" class="edge">
<title>0x00158d000465f8c7-&gt;0xec1bbdfffeaccaf8</title>
<path fill="none" stroke="#994444" d="M1046.0066,-533.642C1045.994,-533.7413 1045.9814,-533.8408 1045.9688,-533.9403"/>
<polygon fill="#994444" stroke="#994444" points="1042.5727,-532.8997 1044.7895,-543.26 1049.5173,-533.7786 1042.5727,-532.8997"/>
<text text-anchor="middle" x="1042.4736" y="-538.103" font-family="Times,serif" font-size="14.00" fill="#000000">0</text>
</g>
<!-- 0x00158d0004511eb2 -->
<g id="node8" class="node">
<title>0x00158d0004511eb2</title>
<path fill="#fff8ce" stroke="#000000" stroke-dasharray="5,2" d="M810.5362,-177.7498C810.5362,-177.7498 1245.765,-177.7498 1245.765,-177.7498 1251.765,-177.7498 1257.765,-183.7498 1257.765,-189.7498 1257.765,-189.7498 1257.765,-215.3498 1257.765,-215.3498 1257.765,-221.3498 1251.765,-227.3498 1245.765,-227.3498 1245.765,-227.3498 810.5362,-227.3498 810.5362,-227.3498 804.5362,-227.3498 798.5362,-221.3498 798.5362,-215.3498 798.5362,-215.3498 798.5362,-189.7498 798.5362,-189.7498 798.5362,-183.7498 804.5362,-177.7498 810.5362,-177.7498"/>
<text text-anchor="middle" x="1028.1506" y="-210.7498" font-family="Times,serif" font-size="14.00" fill="#000000">aqara_motion2</text>
<polyline fill="none" stroke="#000000" stroke-dasharray="5,2" points="798.5362,-202.5498 1257.765,-202.5498 "/>
<text text-anchor="middle" x="1028.1506" y="-185.9498" font-family="Times,serif" font-size="14.00" fill="#000000">Xiaomi Aqara human body movement and illuminance sensor (RTCGQ11LM)</text>
</g>
<!-- 0x00158d0004511eb2&#45;&gt;0x00124b0018e2f44a -->
<g id="edge9" class="edge">
<title>0x00158d0004511eb2-&gt;0x00124b0018e2f44a</title>
<path fill="none" stroke="#994444" d="M1037.7477,-227.5671C1050.4669,-265.4601 1067.181,-337.2918 1029.3117,-377.9807 985.2354,-425.3387 789.4482,-417.2985 694.3823,-410.3264"/>
<polygon fill="#994444" stroke="#994444" points="694.3647,-406.8151 684.1289,-409.5498 693.836,-413.7951 694.3647,-406.8151"/>
<text text-anchor="middle" x="873.9802" y="-418.7268" font-family="Times,serif" font-size="14.00" fill="#000000">69</text>
</g>
<!-- 0x00158d0004855665 -->
<g id="node9" class="node">
<title>0x00158d0004855665</title>
<path fill="#fff8ce" stroke="#000000" stroke-dasharray="5,2" d="M592.9179,-325.1807C592.9179,-325.1807 1014.1117,-325.1807 1014.1117,-325.1807 1020.1117,-325.1807 1026.1117,-331.1807 1026.1117,-337.1807 1026.1117,-337.1807 1026.1117,-362.7807 1026.1117,-362.7807 1026.1117,-368.7807 1020.1117,-374.7807 1014.1117,-374.7807 1014.1117,-374.7807 592.9179,-374.7807 592.9179,-374.7807 586.9179,-374.7807 580.9179,-368.7807 580.9179,-362.7807 580.9179,-362.7807 580.9179,-337.1807 580.9179,-337.1807 580.9179,-331.1807 586.9179,-325.1807 592.9179,-325.1807"/>
<text text-anchor="middle" x="803.5148" y="-358.1807" font-family="Times,serif" font-size="14.00" fill="#000000">aqara_temp3</text>
<polyline fill="none" stroke="#000000" stroke-dasharray="5,2" points="580.9179,-349.9807 1026.1117,-349.9807 "/>
<text text-anchor="middle" x="803.5148" y="-333.3807" font-family="Times,serif" font-size="14.00" fill="#000000">Xiaomi Aqara temperature, humidity and pressure sensor (WSDCGQ11LM)</text>
</g>
<!-- 0x00158d0004855665&#45;&gt;0x00124b0018e2f44a -->
<g id="edge10" class="edge">
<title>0x00158d0004855665-&gt;0x00124b0018e2f44a</title>
<path fill="none" stroke="#994444" d="M731.8379,-374.7897C718.96,-379.247 705.7734,-383.8111 693.6139,-388.0198"/>
<polygon fill="#994444" stroke="#994444" points="692.4131,-384.7317 684.1079,-391.31 694.7027,-391.3466 692.4131,-384.7317"/>
<text text-anchor="middle" x="701.2539" y="-387.1526" font-family="Times,serif" font-size="14.00" fill="#000000">55</text>
</g>
<!-- 0x00158d00044fcb68 -->
<g id="node10" class="node">
<title>0x00158d00044fcb68</title>
<path fill="#fff8ce" stroke="#000000" stroke-dasharray="5,2" d="M473.1359,-.1027C473.1359,-.1027 817.0077,-.1027 817.0077,-.1027 823.0077,-.1027 829.0077,-6.1027 829.0077,-12.1027 829.0077,-12.1027 829.0077,-37.7027 829.0077,-37.7027 829.0077,-43.7027 823.0077,-49.7027 817.0077,-49.7027 817.0077,-49.7027 473.1359,-49.7027 473.1359,-49.7027 467.1359,-49.7027 461.1359,-43.7027 461.1359,-37.7027 461.1359,-37.7027 461.1359,-12.1027 461.1359,-12.1027 461.1359,-6.1027 467.1359,-.1027 473.1359,-.1027"/>
<text text-anchor="middle" x="645.0718" y="-33.1027" font-family="Times,serif" font-size="14.00" fill="#000000">aqara_door2</text>
<polyline fill="none" stroke="#000000" stroke-dasharray="5,2" points="461.1359,-24.9027 829.0077,-24.9027 "/>
<text text-anchor="middle" x="645.0718" y="-8.3027" font-family="Times,serif" font-size="14.00" fill="#000000">Xiaomi MiJia door &amp; window contact sensor (MCCGQ01LM)</text>
</g>
<!-- 0x00158d00044fcb68&#45;&gt;0x00124b0018e2f44a -->
<g id="edge11" class="edge">
<title>0x00158d00044fcb68-&gt;0x00124b0018e2f44a</title>
<path fill="none" stroke="#994444" d="M647.2721,-49.7584C650.23,-86.0762 654.5405,-151.8259 649.2387,-174.8586 632.9296,-245.7103 594.0271,-251.129 577.7179,-321.9807 572.1348,-346.2353 564.0398,-357.1873 577.7179,-377.9807 581.2375,-383.3312 586.0271,-387.6571 591.4178,-391.1538"/>
<polygon fill="#994444" stroke="#994444" points="589.8328,-394.2761 600.2875,-395.9941 593.186,-388.1315 589.8328,-394.2761"/>
<text text-anchor="middle" x="618.2087" y="-230.306" font-family="Times,serif" font-size="14.00" fill="#000000">113</text>
</g>
<!-- 0x00158d00042d7358 -->
<g id="node11" class="node">
<title>0x00158d00042d7358</title>
<path fill="#fff8ce" stroke="#000000" stroke-dasharray="5,2" d="M227.4021,-184.4461C227.4021,-184.4461 515.2641,-184.4461 515.2641,-184.4461 521.2641,-184.4461 527.2641,-190.4461 527.2641,-196.4461 527.2641,-196.4461 527.2641,-222.0461 527.2641,-222.0461 527.2641,-228.0461 521.2641,-234.0461 515.2641,-234.0461 515.2641,-234.0461 227.4021,-234.0461 227.4021,-234.0461 221.4021,-234.0461 215.4021,-228.0461 215.4021,-222.0461 215.4021,-222.0461 215.4021,-196.4461 215.4021,-196.4461 215.4021,-190.4461 221.4021,-184.4461 227.4021,-184.4461"/>
<text text-anchor="middle" x="371.3331" y="-217.4461" font-family="Times,serif" font-size="14.00" fill="#000000">aqara_cube</text>
<polyline fill="none" stroke="#000000" stroke-dasharray="5,2" points="215.4021,-209.2461 527.2641,-209.2461 "/>
<text text-anchor="middle" x="371.3331" y="-192.6461" font-family="Times,serif" font-size="14.00" fill="#000000">Xiaomi Mi/Aqara smart home cube (MFKZQ01LM)</text>
</g>
<!-- 0x00158d00042d7358&#45;&gt;0x00124b0018e2f44a -->
<g id="edge12" class="edge">
<title>0x00158d00042d7358-&gt;0x00124b0018e2f44a</title>
<path fill="none" stroke="#994444" d="M396.9028,-234.1789C434.2308,-269.5969 506.9286,-334.9456 577.7179,-377.9807 581.8645,-380.5016 586.2805,-382.9108 590.7819,-385.1822"/>
<polygon fill="#994444" stroke="#994444" points="589.5526,-388.4743 600.0829,-389.6426 592.5795,-382.1626 589.5526,-388.4743"/>
<text text-anchor="middle" x="486.3859" y="-322.4945" font-family="Times,serif" font-size="14.00" fill="#000000">92</text>
</g>
<!-- 0x00158d000418aba2 -->
<g id="node12" class="node">
<title>0x00158d000418aba2</title>
<path fill="#fff8ce" stroke="#000000" stroke-dasharray="5,2" d="M92.321,-311.3164C92.321,-311.3164 448.2398,-311.3164 448.2398,-311.3164 454.2398,-311.3164 460.2398,-317.3164 460.2398,-323.3164 460.2398,-323.3164 460.2398,-348.9164 460.2398,-348.9164 460.2398,-354.9164 454.2398,-360.9164 448.2398,-360.9164 448.2398,-360.9164 92.321,-360.9164 92.321,-360.9164 86.321,-360.9164 80.321,-354.9164 80.321,-348.9164 80.321,-348.9164 80.321,-323.3164 80.321,-323.3164 80.321,-317.3164 86.321,-311.3164 92.321,-311.3164"/>
<text text-anchor="middle" x="270.2804" y="-344.3164" font-family="Times,serif" font-size="14.00" fill="#000000">mijia_temp</text>
<polyline fill="none" stroke="#000000" stroke-dasharray="5,2" points="80.321,-336.1164 460.2398,-336.1164 "/>
<text text-anchor="middle" x="270.2804" y="-319.5164" font-family="Times,serif" font-size="14.00" fill="#000000">Xiaomi MiJia temperature &amp; humidity sensor (WSDCGQ01LM)</text>
</g>
<!-- 0x00158d000418aba2&#45;&gt;0x00124b0018e2f44a -->
<g id="edge13" class="edge">
<title>0x00158d000418aba2-&gt;0x00124b0018e2f44a</title>
<path fill="none" stroke="#994444" d="M402.7286,-360.9301C467.6181,-373.087 542.0116,-387.0243 590.4432,-396.0978"/>
<polygon fill="#994444" stroke="#994444" points="589.8976,-399.5564 600.3711,-397.9577 591.1866,-392.6761 589.8976,-399.5564"/>
<text text-anchor="middle" x="492.3536" y="-383.8882" font-family="Times,serif" font-size="14.00" fill="#000000">100</text>
</g>
<!-- 0x04cf8cdf3c787fc8 -->
<g id="node13" class="node">
<title>0x04cf8cdf3c787fc8</title>
<path fill="#fff8ce" stroke="#000000" stroke-dasharray="5,2" d="M706.6826,-603.0106C706.6826,-603.0106 992.2458,-603.0106 992.2458,-603.0106 998.2458,-603.0106 1004.2458,-609.0106 1004.2458,-615.0106 1004.2458,-615.0106 1004.2458,-640.6106 1004.2458,-640.6106 1004.2458,-646.6106 998.2458,-652.6106 992.2458,-652.6106 992.2458,-652.6106 706.6826,-652.6106 706.6826,-652.6106 700.6826,-652.6106 694.6826,-646.6106 694.6826,-640.6106 694.6826,-640.6106 694.6826,-615.0106 694.6826,-615.0106 694.6826,-609.0106 700.6826,-603.0106 706.6826,-603.0106"/>
<text text-anchor="middle" x="849.4642" y="-636.0106" font-family="Times,serif" font-size="14.00" fill="#000000">mijia_light</text>
<polyline fill="none" stroke="#000000" stroke-dasharray="5,2" points="694.6826,-627.8106 1004.2458,-627.8106 "/>
<text text-anchor="middle" x="849.4642" y="-611.2106" font-family="Times,serif" font-size="14.00" fill="#000000">Xiaomi MiJia light intensity sensor (GZCGQ01LM)</text>
</g>
<!-- 0x04cf8cdf3c787fc8&#45;&gt;0x00124b0018e2f44a -->
<g id="edge14" class="edge">
<title>0x04cf8cdf3c787fc8-&gt;0x00124b0018e2f44a</title>
<path fill="none" stroke="#994444" d="M789.0257,-602.7496C787.1317,-600.7304 785.4159,-598.5531 783.9284,-596.2058 744.8189,-534.4893 829.529,-487.799 782.5789,-431.8154 761.5496,-406.7398 724.8666,-400.6136 694.2784,-400.5587"/>
<polygon fill="#994444" stroke="#994444" points="694.1005,-397.0614 684.1701,-400.7542 694.236,-404.0601 694.1005,-397.0614"/>
<text text-anchor="middle" x="779.2015" y="-516.0414" font-family="Times,serif" font-size="14.00" fill="#000000">79</text>
</g>
<!-- 0x04cf8cdf3c787fc8&#45;&gt;0xec1bbdfffeaccaf8 -->
<g id="edge15" class="edge">
<title>0x04cf8cdf3c787fc8-&gt;0xec1bbdfffeaccaf8</title>
<path fill="none" stroke="#994444" d="M929.5694,-602.9644C936.945,-600.6767 944.4498,-598.349 951.9034,-596.0371"/>
<polygon fill="#994444" stroke="#994444" points="953.143,-599.3172 961.6572,-593.0117 951.0692,-592.6314 953.143,-599.3172"/>
<text text-anchor="middle" x="942.1063" y="-602.1903" font-family="Times,serif" font-size="14.00" fill="#000000">0</text>
</g>
<!-- 0x00158d000452da39 -->
<g id="node14" class="node">
<title>0x00158d000452da39</title>
<path fill="#fff8ce" stroke="#000000" stroke-dasharray="5,2" d="M689.4274,-714.9088C689.4274,-714.9088 1033.2992,-714.9088 1033.2992,-714.9088 1039.2992,-714.9088 1045.2992,-720.9088 1045.2992,-726.9088 1045.2992,-726.9088 1045.2992,-752.5088 1045.2992,-752.5088 1045.2992,-758.5088 1039.2992,-764.5088 1033.2992,-764.5088 1033.2992,-764.5088 689.4274,-764.5088 689.4274,-764.5088 683.4274,-764.5088 677.4274,-758.5088 677.4274,-752.5088 677.4274,-752.5088 677.4274,-726.9088 677.4274,-726.9088 677.4274,-720.9088 683.4274,-714.9088 689.4274,-714.9088"/>
<text text-anchor="middle" x="861.3633" y="-747.9088" font-family="Times,serif" font-size="14.00" fill="#000000">aqara_door3</text>
<polyline fill="none" stroke="#000000" stroke-dasharray="5,2" points="677.4274,-739.7088 1045.2992,-739.7088 "/>
<text text-anchor="middle" x="861.3633" y="-723.1088" font-family="Times,serif" font-size="14.00" fill="#000000">Xiaomi MiJia door &amp; window contact sensor (MCCGQ01LM)</text>
</g>
<!-- 0x00158d000452da39&#45;&gt;0x00124b0018e2f44a -->
<g id="edge16" class="edge">
<title>0x00158d000452da39-&gt;0x00124b0018e2f44a</title>
<path fill="none" stroke="#994444" d="M766.9983,-714.764C737.6756,-702.0932 708.5842,-683.3301 691.4826,-655.8106 634.7568,-564.5292 851.2994,-514.4447 782.5789,-431.8154 761.6527,-406.6537 724.9664,-400.5302 694.3509,-400.4981"/>
<polygon fill="#994444" stroke="#994444" points="694.1599,-397.0012 684.2325,-400.7021 694.3011,-403.9998 694.1599,-397.0012"/>
<text text-anchor="middle" x="717.0961" y="-560.5342" font-family="Times,serif" font-size="14.00" fill="#000000">98</text>
</g>
<!-- 0x04cf8cdf3c7922b6 -->
<g id="node15" class="node">
<title>0x04cf8cdf3c7922b6</title>
<path fill="#fff8ce" stroke="#000000" stroke-dasharray="5,2" d="M465.1375,-435.0154C465.1375,-435.0154 767.3789,-435.0154 767.3789,-435.0154 773.3789,-435.0154 779.3789,-441.0154 779.3789,-447.0154 779.3789,-447.0154 779.3789,-472.6154 779.3789,-472.6154 779.3789,-478.6154 773.3789,-484.6154 767.3789,-484.6154 767.3789,-484.6154 465.1375,-484.6154 465.1375,-484.6154 459.1375,-484.6154 453.1375,-478.6154 453.1375,-472.6154 453.1375,-472.6154 453.1375,-447.0154 453.1375,-447.0154 453.1375,-441.0154 459.1375,-435.0154 465.1375,-435.0154"/>
<text text-anchor="middle" x="616.2582" y="-468.0154" font-family="Times,serif" font-size="14.00" fill="#000000">aqara_opple</text>
<polyline fill="none" stroke="#000000" stroke-dasharray="5,2" points="453.1375,-459.8154 779.3789,-459.8154 "/>
<text text-anchor="middle" x="616.2582" y="-443.2154" font-family="Times,serif" font-size="14.00" fill="#000000">Xiaomi Aqara Opple switch 3 bands (WXCJKG13LM)</text>
</g>
<!-- 0x04cf8cdf3c7922b6&#45;&gt;0x00124b0018e2f44a -->
<g id="edge17" class="edge">
<title>0x04cf8cdf3c7922b6-&gt;0x00124b0018e2f44a</title>
<path fill="none" stroke="#994444" d="M628.3361,-434.706C628.6094,-434.1378 628.8833,-433.5685 629.1572,-432.999"/>
<polygon fill="#994444" stroke="#994444" points="632.3419,-434.4524 633.5226,-423.9236 626.0337,-431.4181 632.3419,-434.4524"/>
<text text-anchor="middle" x="622.1315" y="-420.4524" font-family="Times,serif" font-size="14.00" fill="#000000">71</text>
</g>
<!-- 0x04cf8cdf3c7922b6&#45;&gt;0xec1bbdfffeaccaf8 -->
<g id="edge18" class="edge">
<title>0x04cf8cdf3c7922b6-&gt;0xec1bbdfffeaccaf8</title>
<path fill="none" stroke="#994444" d="M673.2336,-484.7408C714.2579,-501.7554 771.3161,-523.533 823.3549,-536.7876 829.4419,-538.338 835.6451,-539.8187 841.9248,-541.2322"/>
<polygon fill="#994444" stroke="#994444" points="841.3336,-544.6855 851.85,-543.3987 842.8265,-537.8466 841.3336,-544.6855"/>
<text text-anchor="middle" x="757.5201" y="-522.2404" font-family="Times,serif" font-size="14.00" fill="#000000">0</text>
</g>
<!-- 0x00158d0003d409c7 -->
<g id="node16" class="node">
<title>0x00158d0003d409c7</title>
<path fill="#fff8ce" stroke="#000000" stroke-dasharray="5,2" d="M667.3044,-118.369C667.3044,-118.369 904.2274,-118.369 904.2274,-118.369 910.2274,-118.369 916.2274,-124.369 916.2274,-130.369 916.2274,-130.369 916.2274,-155.969 916.2274,-155.969 916.2274,-161.969 910.2274,-167.969 904.2274,-167.969 904.2274,-167.969 667.3044,-167.969 667.3044,-167.969 661.3044,-167.969 655.3044,-161.969 655.3044,-155.969 655.3044,-155.969 655.3044,-130.369 655.3044,-130.369 655.3044,-124.369 661.3044,-118.369 667.3044,-118.369"/>
<text text-anchor="middle" x="785.7659" y="-151.369" font-family="Times,serif" font-size="14.00" fill="#000000">aqara_vibration</text>
<polyline fill="none" stroke="#000000" stroke-dasharray="5,2" points="655.3044,-143.169 916.2274,-143.169 "/>
<text text-anchor="middle" x="785.7659" y="-126.569" font-family="Times,serif" font-size="14.00" fill="#000000">Xiaomi Aqara vibration sensor (DJT11LM)</text>
</g>
<!-- 0x00158d0003d409c7&#45;&gt;0x00124b0018e2f44a -->
<g id="edge19" class="edge">
<title>0x00158d0003d409c7-&gt;0x00124b0018e2f44a</title>
<path fill="none" stroke="#994444" d="M737.5589,-168.0817C686.9904,-197.2509 610.4077,-250.7801 577.7179,-321.9807 567.3331,-344.5996 564.0398,-357.1873 577.7179,-377.9807 581.2375,-383.3312 586.0271,-387.6571 591.4178,-391.1538"/>
<polygon fill="#994444" stroke="#994444" points="589.8328,-394.2761 600.2875,-395.9941 593.186,-388.1315 589.8328,-394.2761"/>
<text text-anchor="middle" x="622.4436" y="-250.2416" font-family="Times,serif" font-size="14.00" fill="#000000">129</text>
</g>
</g>
</svg>